<?xml version="1.0" encoding="utf-8"?>
<!-- Generator: Adobe Illustrator 25.3.1, SVG Export Plug-In . SVG Version: 6.00 Build 0)  -->
<svg version="1.1" id="Layer_1" xmlns="http://www.w3.org/2000/svg" xmlns:xlink="http://www.w3.org/1999/xlink" x="0px" y="0px"
	 viewBox="0 0 196 36" style="enable-background:new 0 0 196 36;" xml:space="preserve">
<style type="text/css">
	.st0{fill:#FFFFFF;}
</style>
<g>
	<g>
		<path class="st0" d="M27.1,36h-9C8.1,36,0,28,0,18S8.1,0,18,0h9v9h-9c-5,0-9,4-9,9c0,5,4,9,9,9h9V36z"/>
		<polygon class="st0" points="18,18 27.1,27 27.1,18 		"/>
	</g>
	<g>
		<path class="st0" d="M46.4,19.3c-4.8,0-8.4-3.6-8.4-8.4c0-4.9,3.6-8.4,8.4-8.4c4,0,6.6,2.3,7.5,4.9l-3.3,1.4c-0.6-1.9-2.1-3-4.3-3
			c-2.9,0-4.8,2.1-4.8,5.2c0,3.1,1.9,5.2,5.2,5.2c2.2,0,3.9-1,4.5-3.3h-4.9v-2.6h8.3C54.6,16.1,51,19.3,46.4,19.3"/>
		<path class="st0" d="M65.2,12.9c0-2-1.3-3.4-3.2-3.4c-1.8,0-3.2,1.4-3.2,3.4s1.3,3.4,3.2,3.4C63.9,16.3,65.2,14.9,65.2,12.9
			 M68.5,6.7V19h-3.2v-1.3c-0.9,1-2.2,1.7-3.8,1.7c-3.5,0-6.1-2.8-6.1-6.4c0-3.7,2.6-6.2,6.1-6.2c1.6,0,2.9,0.6,3.8,1.6V6.7H68.5z"
			/>
		<path class="st0" d="M89.7,11.4V19h-3.4v-7c0-1.4-0.7-2.5-2.2-2.5c-1.5,0-2.3,1.2-2.3,2.2V19h-3.4v-7c0-1.4-0.7-2.5-2.2-2.5
			c-1.5,0-2.2,1.2-2.3,2.2V19h-3.4V6.7h3.3v1.2c0.8-0.9,2-1.5,3.5-1.5c1.9,0,3,0.7,3.7,1.8c0.7-1,2.1-1.8,4-1.8
			C88.1,6.4,89.7,8.7,89.7,11.4"/>
		<path class="st0" d="M101.2,12.9c0-2-1.3-3.4-3.1-3.4c-1.9,0-3.2,1.4-3.2,3.4c0,2,1.3,3.4,3.2,3.4
			C99.9,16.3,101.2,14.8,101.2,12.9 M104.6,12.9c0,3.7-2.6,6.4-6.1,6.4c-1.6,0-2.9-0.6-3.8-1.6V19h-3.2V2H95v5.8
			c0.9-0.9,2.1-1.3,3.6-1.3C102.2,6.5,104.6,9.2,104.6,12.9"/>
		<rect x="106.1" y="2" class="st0" width="3.4" height="17"/>
		<path class="st0" d="M111.5,6.7h3.4V19h-3.4V6.7z M111,2.8c0-1.3,1-2.2,2.3-2.2c1.3,0,2.2,0.9,2.2,2.2c0,1.3-1,2.2-2.2,2.2
			C112,5,111,4.1,111,2.8"/>
		<path class="st0" d="M128.7,11.3V19h-3.4v-7c0-1.6-1-2.4-2.4-2.4c-1.4,0-2.4,1-2.5,2.2V19H117V6.7h3.3v1.1
			c0.8-0.9,2.1-1.4,3.7-1.4C126.8,6.4,128.7,8.4,128.7,11.3"/>
		<path class="st0" d="M139.7,12.7c0-1.9-1.3-3.2-3.1-3.2c-1.8,0-3.1,1.4-3.1,3.2c0,1.8,1.3,3.2,3.1,3.2
			C138.4,16,139.7,14.6,139.7,12.7 M143.1,6.7v10.4c0,3.7-2.5,6.3-6.7,6.3c-3.4,0-5.3-1.5-6.2-3.6l2.9-1.1c0.5,1.3,1.7,1.9,3.3,1.9
			c2.2,0,3.5-1.2,3.5-3.1V17c-0.9,1-2.2,1.6-3.8,1.6c-3.5,0-6.1-2.7-6.1-6c0-3.3,2.6-6.1,6.1-6.1c1.6,0,2.9,0.6,3.8,1.6V6.7H143.1z"
			/>
		<path class="st0" d="M144.6,17.3c0-1.1,0.8-2,1.9-2s1.9,0.8,1.9,2c0,1.1-0.8,1.9-1.9,1.9S144.6,18.4,144.6,17.3"/>
		<path class="st0" d="M149.2,12.9c0-3.6,2.7-6.4,6.5-6.4c3.3,0,5.4,2.2,5.9,4l-3.1,1.2c-0.3-1.3-1.3-2.2-2.8-2.2
			c-1.7,0-3.1,1.3-3.1,3.3c0,2,1.3,3.3,3.1,3.3c1.5,0,2.5-0.9,2.8-2.1l3.1,1.2c-0.5,1.8-2.6,4-6,4C152,19.3,149.2,16.5,149.2,12.9"
			/>
		<path class="st0" d="M171.9,12.9c0-2-1.3-3.3-3.2-3.3c-1.9,0-3.2,1.4-3.2,3.3c0,2,1.3,3.3,3.2,3.3
			C170.6,16.2,171.9,14.8,171.9,12.9 M162.1,12.9c0-3.7,2.7-6.4,6.6-6.4c3.9,0,6.6,2.7,6.6,6.4c0,3.7-2.8,6.4-6.6,6.4
			C164.9,19.3,162.1,16.5,162.1,12.9"/>
		<path class="st0" d="M196,11.4V19h-3.4v-7c0-1.4-0.7-2.5-2.2-2.5c-1.5,0-2.3,1.2-2.3,2.2V19h-3.4v-7c0-1.4-0.7-2.5-2.2-2.5
			c-1.5,0-2.2,1.2-2.3,2.2V19h-3.4V6.7h3.3v1.2c0.8-0.9,2-1.5,3.5-1.5c1.9,0,3,0.7,3.7,1.8c0.7-1,2.1-1.8,4-1.8
			C194.4,6.4,196,8.7,196,11.4"/>
	</g>
	<g>
		<path class="st0" d="M44,35.4c-2.6,0-4.5-1.9-4.5-4.6c0-2.7,1.9-4.6,4.5-4.6c2.1,0,3.5,1.2,4.1,2.7l-1.3,0.5c-0.4-1.2-1.4-2-2.8-2
			c-1.8,0-3.1,1.4-3.1,3.4c0,2,1.3,3.4,3.2,3.4c1.6,0,2.7-0.9,3-2.6H44v-1.1h4.5C48.5,33.6,46.5,35.4,44,35.4"/>
		<path class="st0" d="M54.8,30.4h2c1.1,0,1.7-0.6,1.7-1.4c0-0.9-0.6-1.4-1.7-1.4h-2V30.4z M55.5,31.4h-0.7v3.9h-1.4v-8.9h3.4
			c1.8,0,3,1,3,2.5c0,1.5-1.1,2.5-2.9,2.5l3,3.9h-1.5L55.5,31.4z"/>
		<path class="st0" d="M72,30.8c0-2-1.3-3.3-3.2-3.3c-1.9,0-3.2,1.4-3.2,3.3c0,1.9,1.3,3.3,3.2,3.3C70.7,34.1,72,32.8,72,30.8
			 M64.3,30.8c0-2.7,2-4.6,4.6-4.6c2.6,0,4.6,2,4.6,4.6c0,2.6-2,4.6-4.6,4.6C66.3,35.4,64.3,33.5,64.3,30.8"/>
		<path class="st0" d="M85.2,26.3v5.6c0,1.9-1.1,3.5-3.4,3.5c-2.3,0-3.5-1.6-3.5-3.5v-5.6h1.4v5.6c0,1.3,0.7,2.2,2.1,2.2
			c1.4,0,2.1-1,2.1-2.2v-5.6H85.2z"/>
		<path class="st0" d="M95.7,29c0-0.9-0.6-1.5-1.7-1.5h-2v2.9h2C95.2,30.5,95.7,29.9,95.7,29 M97.1,29c0,1.6-1.2,2.7-3,2.7h-2.1v3.6
			h-1.4v-8.9h3.4C96,26.3,97.1,27.4,97.1,29"/>
	</g>
</g>
</svg>
